# xmcd CD database file
#
# Track frame offsets:
#	150
#	20212
#	44925
#	68652
#	85445
#	106347
#	128060
#	144067
#	164912
#	185635
#	202410
#	226760
#	249162
#	271945
#	290817
#	311450
#
# Disc length: 4436 seconds
#
# Revision: 0
# Processed by: cddbd v1.5.2PL0 Copyright (c) Steve Scherf et al.
# Submitted via: CDex 1.70beta3
#
DISCID=f5115210
DTITLE=MAX - MAXIMUM PERFECT BEST DISC 1 LOVE
DYEAR=2015
DGENRE=VISION FACTORY
TTITLE0=Ride on time
TTITLE1=Give me a Shake
TTITLE2=一緒に・・・
TTITLE3=GET MY LOVE!
TTITLE4=Shinin' on - Shinin' love
TTITLE5=Love is Dreaming
TTITLE6=Love impact
TTITLE7=Perfect Love
TTITLE8=always love
TTITLE9=LOVE SCREW
TTITLE10=Grace of my heart
TTITLE11=Spring rain
TTITLE12=ニライカナイ
TTITLE13=Be With You
TTITLE14=eternal white
TTITLE15=あなたを想うほど
EXTD=YEAR: 2015
EXTT0=
EXTT1=
EXTT2=
EXTT3=
EXTT4=
EXTT5=
EXTT6=
EXTT7=
EXTT8=
EXTT9=
EXTT10=
EXTT11=
EXTT12=
EXTT13=
EXTT14=
EXTT15=
PLAYORDER=
